# xmcd
# Track frame offsets:
# 150
# 9211
# 19402
# 30000
# 42450
# 56429
# 71249
# 82726
# 94004
# 106859
# 118472
# 131249
# 145637
# 163582
# 174381
# 187108
#
# Disc length: 2635 seconds
# Revision: 0
# Processed by: cddbd v1.5.1PL2 Copyright (c) Steve Scherf et al.
# Submitted via: VisiTrax 2.9.10.228 - For more info visit www.synapsa.com
#
DISCID=cf0a4910
DTITLE=Frankie Laine - Frankie Laine Forever Gold
DYEAR=2001
DGENRE=Country
TTITLE0=Rawhide
TTITLE1=I Believe
TTITLE2=A Woman in Love
TTITLE3=High Noon
TTITLE4=Don't Fence me In
TTITLE5=Jezebel
TTITLE6=Mule Train
TTITLE7=Answer Me
TTITLE8=Rain Rain Rain
TTITLE9=Strange Lady in Town
TTITLE10=Moonlight Gambler
TTITLE11=There Must be a Reason
TTITLE12=You Gave me a Mountain
TTITLE13=Hummingbird
TTITLE14=Granada
TTITLE15=Sixteen Tons
EXTD=
EXTT0=
EXTT1=
EXTT2=
EXTT3=
EXTT4=
EXTT5=
EXTT6=
EXTT7=
EXTT8=
EXTT9=
EXTT10=
EXTT11=
EXTT12=
EXTT13=
EXTT14=
EXTT15=
PLAYORDER=
